# xmcd CD database file
#
# Track frame offsets:
#	150
#	23361
#	39821
#	53277
#	73263
#	96999
#	116911
#	136972
#	157558
#	181593
#	201484
#
# Disc length: 2956 seconds
#
# Revision: 0
# Processed by: cddbd v1.5.2PL0 Copyright (c) Steve Scherf et al.
# Submitted via: Feurio! 1.68 - http://www.feurio.com
#
DISCID=820b8a0b
DTITLE=Lukasz Jemiola Trio - Jemiola
DYEAR=1900
DGENRE=
TTITLE0=Jezeli kiedys
TTITLE1=Gdy dziewczyna idzie spac
TTITLE2=Niewidomi przyjaciele
TTITLE3=Pan Zbyszek
TTITLE4=I'm leaving home
TTITLE5=Rozlaczeni
TTITLE6=Juz polnoc
TTITLE7=Piosenka z pointa
TTITLE8=Za malo
TTITLE9=O szmerach
TTITLE10=Syn ulicy
EXTD=
EXTT0=
EXTT1=
EXTT2=
EXTT3=
EXTT4=
EXTT5=
EXTT6=
EXTT7=
EXTT8=
EXTT9=
EXTT10=
PLAYORDER=
